<?xml version="1.0" encoding="utf-8"?>
<!-- Generator: Adobe Illustrator 18.0.0, SVG Export Plug-In . SVG Version: 6.00 Build 0)  -->
<!DOCTYPE svg PUBLIC "-//W3C//DTD SVG 1.1//EN" "http://www.w3.org/Graphics/SVG/1.1/DTD/svg11.dtd">
<svg version="1.1" id="Layer_1" xmlns="http://www.w3.org/2000/svg" xmlns:xlink="http://www.w3.org/1999/xlink" x="0px" y="0px"
	 width="626.894px" height="269.802px" viewBox="0 0 626.894 269.802" enable-background="new 0 0 626.894 269.802"
	 xml:space="preserve">
<g>
	<path fill="#E4003A" d="M7.773,63.652h24.596v16.619h0.434c2.299-5.182,6.294-9.751,11.979-13.707
		c5.679-3.956,12.406-5.934,20.177-5.934c6.759,0,12.544,1.188,17.37,3.561c4.821,2.373,8.777,5.503,11.871,9.386
		c3.094,3.887,5.358,8.345,6.792,13.384c1.444,5.039,2.167,10.217,2.167,15.535v64.741H77.255v-57.402
		c0-3.024-0.209-6.187-0.648-9.495c-0.426-3.308-1.369-6.293-2.803-8.954c-1.44-2.665-3.417-4.861-5.932-6.586
		c-2.52-1.727-5.866-2.59-10.033-2.59c-4.179,0-7.771,0.831-10.79,2.483c-3.027,1.655-5.505,3.777-7.449,6.366
		c-1.937,2.588-3.422,5.579-4.422,8.954c-1.012,3.386-1.513,6.797-1.513,10.251v56.972H7.773V63.652z"/>
	<polygon fill="#009FE3" points="286.557,139.731 286.557,170.287 238.862,130.799 191.171,170.287 191.171,139.731 
		238.862,100.243 	"/>
	<g>
		<rect x="238.861" y="130.799" fill="#E4003A" width="0.002" height="0.002"/>
		<polygon fill="#E4003A" points="238.862,100.243 257.316,115.522 286.557,91.312 286.557,60.756 		"/>
		<polygon fill="#E4003A" points="191.171,91.312 220.409,115.522 238.862,100.243 191.171,60.756 		"/>
	</g>
	<rect x="134.216" y="63.652" fill="#E4003A" width="25.896" height="103.585"/>
	<path fill="#009FE3" d="M213.452,210.348c-2.419-2.639-6.892-4.545-10.85-4.545c-6.598,0-9.091,4.84-9.091,8.652
		c0,12.023,24.928,7.844,24.928,24.049c0,7.404-5.059,14.662-15.763,14.662c-6.232,0-12.025-2.42-16.056-6.746l3.445-3.443
		c3.006,3.371,7.772,5.203,12.098,5.203c7.624,0,10.557-5.57,10.557-9.529c0-11.658-24.855-7.26-24.855-24.049
		c0-7.039,4.4-13.783,14.224-13.783c5.499,0,11.072,2.125,14.81,6.012L213.452,210.348z"/>
	<path fill="#009FE3" d="M254.951,248.182c11.951,0,20.089-8.58,20.089-21.189c0-12.611-8.138-21.189-20.089-21.189
		c-11.951,0-20.162,8.578-20.162,21.189C234.789,239.602,243,248.182,254.951,248.182 M254.951,200.817
		c15.323,0,25.808,10.631,25.808,26.176c0,15.543-10.485,26.174-25.808,26.174c-15.397,0-25.881-10.631-25.881-26.174
		C229.07,211.447,239.554,200.817,254.951,200.817"/>
	<polygon fill="#009FE3" points="299.896,248.033 319.984,248.033 319.984,252.653 294.397,252.653 294.397,201.332 
		299.896,201.332 	"/>
	<path fill="#009FE3" d="M363.756,201.33h5.499v32.627c0,11.512-7.774,19.209-19.137,19.209c-11.437,0-19.063-7.697-19.063-19.209
		V201.33h5.499v32.627c0,8.504,5.499,14.225,13.491,14.225c8.138,0,13.711-5.721,13.711-14.225V201.33z"/>
	<polygon fill="#009FE3" points="402.394,252.655 396.896,252.655 396.896,205.949 382.158,205.949 382.158,201.33 417.13,201.33 
		417.13,205.949 402.394,205.949 	"/>
	<rect x="429.814" y="201.33" fill="#009FE3" width="5.573" height="51.322"/>
	<path fill="#009FE3" d="M474.684,248.182c11.951,0,20.09-8.58,20.09-21.189c0-12.611-8.139-21.189-20.09-21.189
		c-11.95,0-20.161,8.578-20.161,21.189C454.522,239.602,462.733,248.182,474.684,248.182 M474.684,200.817
		c15.323,0,25.809,10.631,25.809,26.176c0,15.543-10.485,26.174-25.809,26.174c-15.396,0-25.881-10.631-25.881-26.174
		C448.803,211.447,459.287,200.817,474.684,200.817"/>
	<polygon fill="#009FE3" points="517.869,201.33 549.762,242.242 549.762,201.33 555.261,201.33 555.261,252.655 551.523,252.655 
		519.628,211.742 519.628,252.655 514.129,252.655 514.129,201.33 	"/>
	<path fill="#009FE3" d="M595.072,210.348c-2.419-2.639-6.892-4.545-10.851-4.545c-6.599,0-9.092,4.84-9.092,8.652
		c0,12.023,24.929,7.844,24.929,24.049c0,7.404-5.06,14.662-15.764,14.662c-6.231,0-12.024-2.42-16.056-6.746l3.445-3.443
		c3.006,3.371,7.772,5.203,12.098,5.203c7.624,0,10.557-5.57,10.557-9.529c0-11.658-24.854-7.26-24.854-24.049
		c0-7.039,4.399-13.783,14.224-13.783c5.499,0,11.072,2.125,14.811,6.012L595.072,210.348z"/>
	<path fill="#E4003A" d="M163.143,32.145c0,8.825-7.153,15.978-15.977,15.978c-8.825,0-15.978-7.152-15.978-15.978
		c0-8.824,7.153-15.978,15.978-15.978C155.99,16.168,163.143,23.321,163.143,32.145"/>
</g>
</svg>
